<?xml version="1.0" standalone="no"?>
<!DOCTYPE svg PUBLIC "-//W3C//DTD SVG 20010904//EN"
 "http://www.w3.org/TR/2001/REC-SVG-20010904/DTD/svg10.dtd">
<svg version="1.0" xmlns="http://www.w3.org/2000/svg"
 width="360.000000pt" height="360.000000pt" viewBox="0 0 360.000000 360.000000"
 preserveAspectRatio="xMidYMid meet">

<g transform="translate(0.000000,360.000000) scale(0.100000,-0.100000)"
fill="#000000" stroke="none">
<path d="M1666 3201 c-44 -29 -70 -77 -70 -131 0 -103 93 -175 192 -148 128
35 153 209 40 278 -44 26 -123 27 -162 1z"/>
<path d="M2208 3131 c-80 -26 -123 -91 -116 -177 6 -68 41 -116 103 -139 145
-56 279 100 203 237 -37 65 -122 100 -190 79z"/>
<path d="M1173 3090 c-118 -72 -81 -244 55 -258 89 -8 152 48 152 138 0 110
-115 177 -207 120z"/>
<path d="M2602 2843 c-124 -61 -133 -232 -17 -312 74 -51 184 -31 241 44 40
53 46 137 13 195 -45 80 -154 114 -237 73z"/>
<path d="M746 2791 c-40 -27 -55 -57 -56 -113 0 -36 6 -54 26 -77 79 -94 224
-38 224 87 0 38 -5 50 -39 83 -33 33 -45 39 -82 39 -27 0 -56 -8 -73 -19z"/>
<path d="M2906 2436 c-81 -30 -126 -97 -126 -188 0 -136 141 -226 265 -169
179 81 139 343 -56 366 -26 3 -60 -1 -83 -9z"/>
<path d="M468 2353 c-30 -19 -58 -68 -58 -103 0 -60 57 -110 126 -110 28 0 44
8 70 34 29 29 34 41 34 80 0 64 -38 106 -100 112 -32 3 -53 -1 -72 -13z"/>
<path d="M2969 1927 c-95 -50 -132 -176 -81 -274 35 -66 112 -113 186 -113 35
0 111 32 139 58 56 50 78 172 45 237 -22 42 -67 85 -105 101 -51 22 -133 18
-184 -9z"/>
<path d="M362 1825 c-74 -63 -32 -175 66 -175 35 0 49 6 73 29 89 90 -42 228
-139 146z"/>
<path d="M465 1305 c-47 -46 -22 -134 41 -149 55 -14 114 35 114 94 0 12 -13
35 -29 51 -38 38 -91 40 -126 4z"/>
<path d="M2960 1240 c0 -5 5 -10 10 -10 6 0 10 5 10 10 0 6 -4 10 -10 10 -5 0
-10 -4 -10 -10z"/>
<path d="M762 867 c-47 -50 -15 -127 51 -127 68 0 103 83 54 128 -31 29 -77
29 -105 -1z"/>
<path d="M2664 825 c-4 -9 -2 -21 4 -27 15 -15 44 -1 40 19 -4 23 -36 29 -44
8z"/>
<path d="M1197 572 c-33 -36 -16 -92 33 -107 41 -13 86 34 74 80 -11 45 -76
61 -107 27z"/>
<path d="M2230 556 c-6 -8 -10 -25 -8 -38 2 -18 9 -23 33 -23 24 0 31 5 33 24
3 15 -3 30 -14 38 -23 17 -29 16 -44 -1z"/>
<path d="M1718 469 c-21 -12 -24 -59 -6 -77 15 -15 61 -15 76 0 18 18 15 53
-6 71 -21 19 -39 21 -64 6z"/>
</g>
</svg>
